# xmcd
# 
# Track frame offsets:
#     150
#     41052
#     53226
#     80337
#     104191
#     122301
#     142866
#     157720
# 
# Disc length: 2596
# 
# Revision: 1
# Processed by: cddbd v1.5.2PL0 Copyright (c) Steve Scherf et al.
# Submitted via: fre:ac v1.1beta1pre5
# 
DISCID=5d0a2208
DTITLE=Various Artist - Battle Jazz～Big Band 3 Conducted By Osamu Yoshida
DYEAR=2008
DGENRE=J-Jazz
TTITLE0=EXPLOSION
TTITLE1=TAKE THE "A" TRAIN
TTITLE2=CINDELELLA'S WALTZ
TTITLE3=CHECKS IN THE MAIL
TTITLE4=APPLE HONEY
TTITLE5=BALLAD FOR A ROUGH YEAR
TTITLE6=PRESSURE COOKER
TTITLE7=OPEN THE DOOR!
EXTD=YEAR: 2008
EXTT0=
EXTT1=
EXTT2=
EXTT3=
EXTT4=
EXTT5=
EXTT6=
EXTT7=
PLAYORDER=
